Ripper ...........: IMAGiNE                                        IMDB Rating.......:8.3/10                            
Video Codec.......: XVID                                         Release Date......:18/12/09
Audio Codec.......:MP3                                           Theatre Date......:29/10/09
Audio Bitrate.....:128                                              Runtime.......:1h 20mn
Subtitles.........:NIL                                                 Language..........:ENGLISH
Resolution...... 576 x 304                                      IMDb URL..........:http://www.imdb.com/title/tt0432283/


DETAILS:

Video
ID                               : 0
Format                           : MPEG-4 Visual
Format profile                   : Advanced Simple@L5
Format settings, BVOP            : Yes
Format settings, QPel            : No
Format settings, GMC             : No warppoints
Format settings, Matrix          : Default (MPEG)
Muxing mode                      : Packed bitstream
Codec ID                         : XVID
Codec ID/Hint                    : XviD
Duration                         : 1h 20mn
Bit rate                         : 1 091 Kbps
Width                            : 576 pixels
Height                           : 304 pixels
Display aspect ratio             : 1.895
Frame rate                       : 23.976 fps
Resolution                       : 24 bits
Colorimetry                      : 4:2:0
Scan type                        : Progressive
Bits/(Pixel*Frame)               : 0.260
Stream size                      : 630 MiB (89%)
Writing library                  : XviD 1.2.1 (UTC 2008-12-04)

Audio
ID                               : 1
Format                           : MPEG Audio
Format version                   : Version 1
Format profile                   : Layer 3
Codec ID                         : 55
Codec ID/Hint                    : MP3
Duration                         : 1h 20mn
Bit rate mode                    : Constant
Bit rate                         : 128 Kbps
Channel(s)                       : 2 channels
Sampling rate                    : 44.1 KHz
Resolution                       : 16 bits
Stream size                      : 73.9 MiB (10%)
Alignment                        : Split accross interleaves
Interleave, duration             : 42 ms (1.00 video frame)
Interleave, preload duration     : 500 ms


NOTES:

IMAGiNE bringing you another release.....
Ok here we have just a plain re-encode of nDn'S Cam of Mr fox.......(Thanks)
Well source isn't the greatest but audio is not too bad for cam .....hoping to get some line for this
but can't say 100% yet.
Just tweaked the video a touch....made it sharper,brigther,altered RGB colours,used an HI Q Smoother aswell...
Overall nothing special but watchable,better on small TVs though.